<?xml version="1.0" encoding="UTF-8"?>
<svg version="1.1" xmlns="http://www.w3.org/2000/svg" width="304" height="262">
<path d="M0 0 C1.36700546 -0.00422974 1.36700546 -0.00422974 2.7616272 -0.00854492 C3.75398376 -0.00652069 4.74634033 -0.00449646 5.76876831 -0.00241089 C7.34490402 -0.00503937 7.34490402 -0.00503937 8.95288086 -0.00772095 C12.42782235 -0.01212418 15.90271301 -0.00920724 19.37765503 -0.00582886 C21.78853363 -0.00650223 24.19941216 -0.00747254 26.61029053 -0.00872803 C31.66247199 -0.01020284 36.71463578 -0.00805698 41.76681519 -0.00338745 C48.25488246 0.00231581 54.74290843 -0.00097432 61.2309742 -0.00695992 C66.20821445 -0.01056613 71.18544485 -0.00942677 76.16268539 -0.00683212 C78.55578491 -0.00616334 80.94888531 -0.00698959 83.3419838 -0.00931168 C86.6795821 -0.01183983 90.01711258 -0.00799553 93.35470581 -0.00241089 C94.35111084 -0.00443512 95.34751587 -0.00645935 96.37411499 -0.00854492 C97.27981232 -0.0057251 98.18550964 -0.00290527 99.11865234 0 C99.90804262 0.00037703 100.6974329 0.00075405 101.51074409 0.0011425 C103.43234253 0.12698364 103.43234253 0.12698364 105.43234253 1.12698364 C105.44168823 2.28222534 105.45103394 3.43746704 105.46066284 4.62771606 C105.50060863 8.92384046 105.56637999 13.2192522 105.63986206 17.5149231 C105.66804512 19.37225167 105.68927293 21.22969959 105.70333862 23.08718872 C105.72480537 25.76123025 105.77147322 28.43384099 105.82296753 31.10745239 C105.82419617 31.93472336 105.8254248 32.76199432 105.82669067 33.61433411 C105.92555506 37.52722803 106.14615192 39.65662915 108.22042847 43.06570435 C112.63623835 47.18079076 115.61732829 47.36597882 121.64718628 47.28713989 C122.33994156 47.28193832 123.03269684 47.27673676 123.7464447 47.27137756 C125.9544607 47.25361747 128.16200568 47.22247237 130.36984253 47.18948364 C132.57406319 47.16177124 134.778213 47.13704681 136.98252869 47.11830139 C138.98531917 47.100522 140.98801727 47.07311056 142.99069214 47.04519653 C145.96507857 47.11587962 148.55236996 47.42378661 151.43234253 48.12698364 C151.62856299 52.25161781 151.81284469 56.37669937 151.99484253 60.50198364 C152.05091675 61.67760864 152.10699097 62.85323364 152.1647644 64.06448364 C152.21310425 65.18596802 152.26144409 66.30745239 152.31124878 67.46292114 C152.35838013 68.49981079 152.40551147 69.53670044 152.45407104 70.60501099 C152.43234253 73.12698364 152.43234253 73.12698364 151.43234253 75.12698364 C150.52991821 75.13632935 149.6274939 75.14567505 148.69772339 75.15530396 C145.32196675 75.19954205 141.94743967 75.26125229 138.57223511 75.33450317 C137.11662293 75.3625795 135.66086207 75.38385996 134.20504761 75.39797974 C121.9060047 75.46735017 121.9060047 75.46735017 111.69015503 81.72463989 C108.18542072 86.25662391 107.3058847 89.14743654 107.33468628 94.7961731 C107.3379895 95.96884232 107.34129272 97.14151154 107.34469604 98.34971619 C107.35714355 100.2755378 107.35714355 100.2755378 107.36984253 102.24026489 C107.37426789 103.60551271 107.37807903 104.97076264 107.38131714 106.33601379 C107.39459984 111.40677231 107.41776782 116.47747412 107.44271851 121.54818726 C107.46673152 126.46637129 107.48489942 131.38453126 107.49484253 136.30276489 C107.49636322 137.01690678 107.49788391 137.73104866 107.49945068 138.46683121 C107.52765219 159.35829958 106.95664987 180.24349817 106.43234253 201.12698364 C91.50732625 201.19705815 76.58232273 201.24996415 61.65717697 201.28242016 C54.72719576 201.29789047 47.79731674 201.318983 40.86740112 201.353302 C34.18251384 201.38639177 27.49775479 201.40382572 20.81278229 201.41161537 C18.25943579 201.41716825 15.70609526 201.42801131 13.15279388 201.44417381 C9.58276188 201.46587816 6.01317184 201.46895343 2.44308472 201.46755981 C1.38213089 201.47834564 0.32117706 201.48913147 -0.77192688 201.50024414 C-1.74505325 201.49612015 -2.71817963 201.49199615 -3.72079468 201.48774719 C-4.56515705 201.49051257 -5.40951942 201.49327795 -6.27946854 201.49612713 C-9.29369851 201.00985463 -10.53294256 200.43266935 -12.56765747 198.12698364 C-12.96878701 195.42507884 -13.10802263 193.12572964 -13.07559204 190.42141724 C-13.08495198 189.23243363 -13.08495198 189.23243363 -13.09450102 188.01943016 C-13.11049865 185.35446089 -13.09780074 182.69039773 -13.0852356 180.02542114 C-13.09065372 178.118535 -13.09777463 176.21165304 -13.10647583 174.30477905 C-13.12474895 169.11886633 -13.11762519 163.93327105 -13.10495949 158.7473526 C-13.09485246 153.32750067 -13.10421876 147.90767645 -13.11050415 142.48782349 C-13.11778726 133.38507187 -13.10817543 124.28244995 -13.08914185 115.17971802 C-13.06737188 104.646495 -13.07442278 94.11358165 -13.09644747 83.58036613 C-13.11458255 74.54676088 -13.11716905 65.513249 -13.10669279 56.47963142 C-13.10044745 51.07986498 -13.09965077 45.68024422 -13.11283875 40.28048706 C-13.1243691 35.20461232 -13.11642309 30.12913793 -13.09326172 25.05330658 C-13.08795955 23.18722957 -13.08951404 21.32111904 -13.09831238 19.45505524 C-13.10919227 16.91376086 -13.09559702 14.3737612 -13.07559204 11.83255005 C-13.08451493 11.08849096 -13.09343781 10.34443188 -13.10263109 9.57782555 C-13.05360645 6.38235253 -13.00688326 4.60006866 -10.78591156 2.20788574 C-7.11692838 0.4200781 -4.05873899 0.00193667 0 0 Z M11.43234253 76.12698364 C10.45002283 79.90910478 10.48953638 82.42907927 11.50656128 86.18948364 C11.76002319 87.14459839 12.01348511 88.09971313 12.27462769 89.08377075 C12.55354858 90.08803101 12.83246948 91.09229126 13.11984253 92.12698364 C13.53822388 93.68074707 13.53822388 93.68074707 13.96505737 95.26589966 C15.67291527 101.55284684 17.50455026 107.78328108 19.49484253 113.98635864 C20.86753646 118.5848833 21.97241149 123.24702239 23.03829956 127.92556763 C23.95502149 131.92681234 23.95502149 131.92681234 26.43234253 135.12698364 C29.01298382 135.27196349 31.48178137 135.31375909 34.05734253 135.25198364 C34.76374878 135.24296021 35.47015503 135.23393677 36.19796753 135.22463989 C37.94290351 135.20105968 39.68766548 135.16518825 41.43234253 135.12698364 C44.61084536 127.71047703 45.9833381 120.01943332 47.43234253 112.12698364 C48.42234253 112.12698364 49.41234253 112.12698364 50.43234253 112.12698364 C50.63536987 113.37221802 50.63536987 113.37221802 50.84249878 114.64260864 C51.47782288 118.395649 52.15376389 122.13868592 52.86984253 125.87698364 C52.99165894 126.54858521 53.11347534 127.22018677 53.23898315 127.91213989 C53.98056039 131.93573863 53.98056039 131.93573863 56.43234253 135.12698364 C59.71998268 135.44756235 59.71998268 135.44756235 63.43234253 135.37698364 C65.31953003 135.38471802 65.31953003 135.38471802 67.24484253 135.39260864 C70.52516614 135.46478819 70.52516614 135.46478819 72.43234253 133.12698364 C73.15312296 131.02066632 73.79036137 128.88547951 74.38546753 126.74026489 C74.65700905 125.77139091 74.65700905 125.77139091 74.93403625 124.78294373 C75.52390598 122.6703559 76.10367029 120.55516385 76.68234253 118.43948364 C77.08289905 116.98873348 77.48369784 115.5380502 77.88473511 114.08743286 C78.69077325 111.1649111 79.49150806 108.24100421 80.28829956 105.31594849 C81.3209231 101.52634032 82.37405652 97.7426306 83.42843628 93.95901489 C83.99359867 91.89037564 84.55749475 89.82138981 85.11984253 87.75198364 C85.38764526 86.79719116 85.655448 85.84239868 85.93136597 84.8586731 C86.16243042 83.9907312 86.39349487 83.12278931 86.63156128 82.22854614 C86.83611938 81.47911743 87.04067749 80.72968872 87.25143433 79.95755005 C87.31113403 79.35346313 87.37083374 78.74937622 87.43234253 78.12698364 C84.65939063 75.35403174 82.85970522 75.79507018 78.99484253 75.75198364 C77.84113159 75.72362427 76.68742065 75.69526489 75.49874878 75.66604614 C72.39374385 75.80812586 72.39374385 75.80812586 70.81149292 77.86233521 C69.34896451 80.2638954 68.79793895 82.06752433 68.29953003 84.82229614 C68.05009644 86.14294067 68.05009644 86.14294067 67.79562378 87.49026489 C67.63449097 88.40163208 67.47335815 89.31299927 67.30734253 90.25198364 C66.97377195 92.06752428 66.63794383 93.88265204 66.29953003 95.69729614 C66.15628296 96.49925415 66.01303589 97.30121216 65.865448 98.12747192 C65.43234253 100.12698364 65.43234253 100.12698364 64.43234253 102.12698364 C63.44234253 102.45698364 62.45234253 102.78698364 61.43234253 103.12698364 C61.37626831 102.3052063 61.37626831 102.3052063 61.31906128 101.46682739 C60.86221137 95.95775501 60.04247376 90.55312595 58.99484253 85.12698364 C58.74863159 83.84823364 58.50242065 82.56948364 58.24874878 81.25198364 C57.69383262 78.05153226 57.69383262 78.05153226 55.43234253 76.12698364 C52.41061719 75.73008788 52.41061719 75.73008788 48.99484253 75.75198364 C47.84113159 75.72362427 46.68742065 75.69526489 45.49874878 75.66604614 C42.4592481 75.85906035 42.4592481 75.85906035 40.65890503 77.55667114 C38.80788494 81.43556038 38.05941445 85.42417286 37.24484253 89.62698364 C37.06759644 90.48163208 36.89035034 91.33628052 36.70773315 92.21682739 C35.94628641 95.98584176 35.43234253 99.25398723 35.43234253 103.12698364 C34.44234253 103.12698364 33.45234253 103.12698364 32.43234253 103.12698364 C32.05142456 101.44282349 32.05142456 101.44282349 31.66281128 99.72463989 C29.7274741 87.05205366 29.7274741 87.05205366 24.43234253 76.12698364 C22.245948 76.05439418 20.05733864 76.04324582 17.86984253 76.06448364 C16.67230347 76.07350708 15.4747644 76.08253052 14.24093628 76.09182739 C12.85068237 76.10922974 12.85068237 76.10922974 11.43234253 76.12698364 Z " fill="#F6F5F3" transform="translate(44.567657470703125,26.873016357421875)"/>
<path d="M0 0 C1.00268921 -0.01007584 2.00537842 -0.02015167 3.03845215 -0.03053284 C6.33304165 -0.05888992 9.62717128 -0.06488257 12.921875 -0.06811523 C15.22298365 -0.0777624 17.52409048 -0.08785533 19.82519531 -0.09837341 C24.64001736 -0.11630238 29.45467819 -0.12189751 34.26953125 -0.12011719 C40.42997176 -0.11981197 46.58937764 -0.1608219 52.74957275 -0.21243382 C57.49890875 -0.24583038 62.24799513 -0.25187382 66.99743652 -0.25028801 C69.26838763 -0.25382081 71.53934569 -0.26704944 73.81018066 -0.29028511 C76.98877099 -0.31977393 80.16512145 -0.31102261 83.34375 -0.29296875 C84.27489624 -0.30982727 85.20604248 -0.32668579 86.16540527 -0.34405518 C91.8385088 -0.26242379 95.81371895 0.77079515 100.18633842 4.51579189 C103.00388048 8.15735708 102.77394197 11.91518519 102.68774414 16.36572266 C102.70027222 17.35033478 102.71280029 18.3349469 102.72570801 19.34939575 C102.75746886 22.59926281 102.73270203 25.84606764 102.70703125 29.09594727 C102.71709842 31.36553124 102.73053205 33.63510256 102.74717712 35.90464783 C102.78129295 41.88241212 102.76679183 47.85913862 102.74304199 53.83691406 C102.73155825 58.68822803 102.75340411 63.53910916 102.77735233 68.39035892 C103.03941262 121.82612067 103.03941262 121.82612067 98.671875 127.43579102 C93.5068446 131.06005799 88.51592884 130.86273353 82.44726562 130.82397461 C81.43190231 130.82923157 80.416539 130.83448853 79.3704071 130.83990479 C76.02282205 130.85308034 72.67571468 130.84437508 69.328125 130.83422852 C66.99694732 130.83624995 64.66577025 130.83916196 62.33459473 130.84292603 C57.45233125 130.84734608 52.57023258 130.8409284 47.68798828 130.8269043 C41.43342214 130.80981282 35.17924222 130.81965567 28.92469025 130.83762169 C24.11196997 130.848468 19.29934109 130.84500924 14.48661804 130.83723831 C12.18055678 130.83523866 9.8744872 130.83768731 7.56843567 130.84467697 C4.34422865 130.85230515 1.12064503 130.84066743 -2.10351562 130.82397461 C-3.52976006 130.83308365 -3.52976006 130.83308365 -4.9848175 130.84237671 C-10.13938154 130.79299758 -13.96749625 130.49561478 -18.328125 127.43579102 C-22.46817585 122.94023988 -21.75030278 117.35183853 -21.71630859 111.59033203 C-21.72156555 110.49708618 -21.72682251 109.40384033 -21.73223877 108.27746582 C-21.74543901 104.66473083 -21.73669962 101.05243673 -21.7265625 97.43969727 C-21.72858336 94.92772843 -21.73149491 92.41576016 -21.73526001 89.90379333 C-21.73968352 84.63894152 -21.73353833 79.37420422 -21.71923828 74.109375 C-21.70292094 68.03185656 -21.70819513 61.95464022 -21.7247175 55.87712914 C-21.73999959 50.02036066 -21.73834644 44.16370652 -21.7295723 38.30692863 C-21.72757167 35.81944677 -21.73002473 33.33195719 -21.73701096 30.84448433 C-21.74463499 27.3663305 -21.7330066 23.88875531 -21.71630859 20.41064453 C-21.72238129 19.38343796 -21.72845398 18.35623138 -21.73471069 17.29789734 C-21.6488776 7.64034565 -21.6488776 7.64034565 -18.328125 3.43579102 C-12.25668389 0.26848177 -6.75371353 -0.00986104 0 0 Z " fill="#F4F4F1" transform="translate(180.328125,108.564208984375)"/>
<path d="M0 0 C0.77512939 0.00404846 1.55025879 0.00809692 2.34887695 0.01226807 C3.16525635 0.00876343 3.98163574 0.00525879 4.82275391 0.00164795 C7.52946399 -0.00717635 10.23591407 -0.0013178 12.94262695 0.00543213 C14.81827851 0.00408568 16.69392972 0.00214532 18.56958008 -0.00036621 C22.50385861 -0.00331842 26.43804644 0.00098327 30.37231445 0.01031494 C35.4233726 0.02170953 40.47421822 0.01515057 45.52526855 0.00317001 C49.39934907 -0.00404598 53.27337893 -0.00176186 57.14746094 0.0034256 C59.01025416 0.00476282 60.87305193 0.00311186 62.73583984 -0.00153351 C65.33614337 -0.00659448 67.9360994 0.00110532 70.53637695 0.01226807 C71.31150635 0.0082196 72.08663574 0.00417114 72.88525391 0 C78.21409851 0.04252869 78.21409851 0.04252869 80.44262695 2.27105713 C80.69262695 4.77105713 80.69262695 4.77105713 80.44262695 7.27105713 C77.90433874 9.80934534 76.28434713 9.5189158 72.8217926 9.55322266 C72.03731247 9.55074524 71.25283234 9.54826782 70.44458008 9.54571533 C69.61844711 9.55082626 68.79231415 9.55593719 67.94114685 9.561203 C65.20198383 9.57513824 62.46307127 9.57413946 59.72387695 9.57183838 C57.8258047 9.57572284 55.92773333 9.58005698 54.02966309 9.58482361 C50.0483112 9.59229405 46.06704797 9.59198836 42.08569336 9.58673096 C36.97403394 9.58093185 31.86273634 9.59787397 26.75113678 9.62107563 C22.83072779 9.63577891 18.91040665 9.63668939 14.98997498 9.6335659 C13.10484601 9.63408072 11.21971234 9.63934838 9.33460999 9.64937782 C6.70305585 9.66166073 4.07221581 9.65500031 1.44067383 9.64337158 C0.6561937 9.65101532 -0.12828644 9.65865906 -0.9365387 9.66653442 C-3.10339355 9.64527893 -3.10339355 9.64527893 -6.55737305 9.27105713 C-8.55737305 6.27105713 -8.55737305 6.27105713 -8.30737305 4.20855713 C-6.624325 -0.13931699 -4.26926951 0.03407238 0 0 Z " fill="#0E0F0B" transform="translate(184.557373046875,168.72894287109375)"/>
<path d="M0 0 C0.77512939 0.00404846 1.55025879 0.00809692 2.34887695 0.01226807 C3.16525635 0.00876343 3.98163574 0.00525879 4.82275391 0.00164795 C7.52946399 -0.00717635 10.23591407 -0.0013178 12.94262695 0.00543213 C14.81827851 0.00408568 16.69392972 0.00214532 18.56958008 -0.00036621 C22.50385861 -0.00331842 26.43804644 0.00098327 30.37231445 0.01031494 C35.4233726 0.02170953 40.47421822 0.01515057 45.52526855 0.00317001 C49.39934907 -0.00404598 53.27337893 -0.00176186 57.14746094 0.0034256 C59.01025416 0.00476282 60.87305193 0.00311186 62.73583984 -0.00153351 C65.33614337 -0.00659448 67.9360994 0.00110532 70.53637695 0.01226807 C71.31150635 0.0082196 72.08663574 0.00417114 72.88525391 0 C78.21409851 0.04252869 78.21409851 0.04252869 80.44262695 2.27105713 C80.69262695 4.77105713 80.69262695 4.77105713 80.44262695 7.27105713 C77.90433874 9.80934534 76.28434713 9.5189158 72.8217926 9.55322266 C72.03731247 9.55074524 71.25283234 9.54826782 70.44458008 9.54571533 C69.61844711 9.55082626 68.79231415 9.55593719 67.94114685 9.561203 C65.20198383 9.57513824 62.46307127 9.57413946 59.72387695 9.57183838 C57.8258047 9.57572284 55.92773333 9.58005698 54.02966309 9.58482361 C50.0483112 9.59229405 46.06704797 9.59198836 42.08569336 9.58673096 C36.97403394 9.58093185 31.86273634 9.59787397 26.75113678 9.62107563 C22.83072779 9.63577891 18.91040665 9.63668939 14.98997498 9.6335659 C13.10484601 9.63408072 11.21971234 9.63934838 9.33460999 9.64937782 C6.70305585 9.66166073 4.07221581 9.65500031 1.44067383 9.64337158 C0.6561937 9.65101532 -0.12828644 9.65865906 -0.9365387 9.66653442 C-3.10339355 9.64527893 -3.10339355 9.64527893 -6.55737305 9.27105713 C-8.55737305 6.27105713 -8.55737305 6.27105713 -8.30737305 4.20855713 C-6.624325 -0.13931699 -4.26926951 0.03407238 0 0 Z " fill="#141511" transform="translate(184.557373046875,142.72894287109375)"/>
<path d="M0 0 C0.81637939 -0.00335861 1.63275879 -0.00671722 2.47387695 -0.01017761 C5.18051665 -0.01969999 7.88709458 -0.02163125 10.59375 -0.02270508 C12.46940131 -0.02591634 14.34505236 -0.02928031 16.22070312 -0.03279114 C20.15495383 -0.03878533 24.08918255 -0.0406307 28.0234375 -0.04003906 C33.07448003 -0.03993733 38.12538235 -0.05360015 43.1763916 -0.07081127 C47.05046237 -0.08190676 50.92449895 -0.08395904 54.79858398 -0.08342934 C56.66138188 -0.08461275 58.52418056 -0.08905464 60.38696289 -0.0967617 C62.98724316 -0.10651399 65.58721521 -0.10370275 68.1875 -0.09765625 C68.96262939 -0.10327576 69.73775879 -0.10889526 70.53637695 -0.11468506 C75.86543324 -0.08305309 75.86543324 -0.08305309 78.09375 2.14526367 C78.40625 4.64526367 78.40625 4.64526367 78.09375 7.14526367 C74.36969215 9.62796891 71.49197977 9.43396123 67.18164062 9.41992188 C66.37647507 9.42503281 65.57130951 9.43014374 64.741745 9.43540955 C62.0777546 9.44932056 59.41402242 9.44834785 56.75 9.44604492 C54.90059309 9.44993065 53.05118708 9.45426506 51.20178223 9.45903015 C47.32475898 9.46649533 43.4478268 9.46619865 39.57080078 9.4609375 C34.59714813 9.45513845 29.62386733 9.47208289 24.65027618 9.49528217 C20.83105278 9.50999686 17.01191945 9.51089438 13.19267273 9.50777245 C11.35860965 9.50828667 9.52454165 9.51354325 7.69050598 9.52358437 C5.1287094 9.53588954 2.56764382 9.5291934 0.00585938 9.51757812 C-0.75475296 9.52522186 -1.5153653 9.5328656 -2.29902649 9.54074097 C-7.39813152 9.48951124 -7.39813152 9.48951124 -9.91247559 7.78605652 C-10.90625 6.14526367 -10.90625 6.14526367 -10.71875 3.52026367 C-9.06805385 -1.30484815 -4.351636 -0.00254422 0 0 Z " fill="#0A0A08" transform="translate(186.90625,194.854736328125)"/>
<path d="M0 0 C3.90428808 0.97607202 4.59780066 1.22957858 7.171875 3.9140625 C7.7496167 4.50662842 8.3273584 5.09919434 8.92260742 5.7097168 C9.52564697 6.34176025 10.12868652 6.97380371 10.75 7.625 C12.00982825 8.91721041 13.2715298 10.20759728 14.53515625 11.49609375 C15.43838623 12.41817627 15.43838623 12.41817627 16.35986328 13.35888672 C18.22884021 15.22897646 20.16937992 16.97985993 22.1875 18.6875 C25.58618454 21.58267572 28.80977257 24.62882731 32 27.75 C32.49395264 28.22268311 32.98790527 28.69536621 33.49682617 29.18237305 C34.72415725 30.39752865 35.86917273 31.69455969 37 33 C37 33.99 37 34.98 37 36 C24.79 36 12.58 36 0 36 C0 24.12 0 12.24 0 0 Z " fill="#F8F8F5" transform="translate(158,30)"/>
<path d="M0 0 C26.4 0 52.8 0 80 0 C80 0.99 80 1.98 80 3 C53.6 3 27.2 3 0 3 C0 2.01 0 1.02 0 0 Z " fill="#FDFCF9" transform="translate(184,205)"/>
<path d="M0 0 C1.32 0.33 2.64 0.66 4 1 C4 13.87 4 26.74 4 40 C2.68 39.67 1.36 39.34 0 39 C-0.02717692 36.93757383 -0.0464758 34.87504297 -0.0625 32.8125 C-0.07410156 31.66394531 -0.08570313 30.51539062 -0.09765625 29.33203125 C0 26 0 26 0.53125 23.38671875 C1.05049879 20.74287698 0.89987599 18.66568686 0.5625 16 C-0.45395894 7.76539589 -0.45395894 7.76539589 0.5625 3.8125 C1.22642103 1.91567768 1.22642103 1.91567768 0 0 Z " fill="#E9E9E5" transform="translate(146,27)"/>
<path d="M0 0 C1.2065625 0.0309375 1.2065625 0.0309375 2.4375 0.0625 C2.4375 1.0525 2.4375 2.0425 2.4375 3.0625 C10.3575 3.0625 18.2775 3.0625 26.4375 3.0625 C26.4375 3.3925 26.4375 3.7225 26.4375 4.0625 C25.24205566 4.10008423 25.24205566 4.10008423 24.02246094 4.13842773 C20.41064778 4.25448789 16.79908898 4.37716931 13.1875 4.5 C11.30611328 4.55897461 11.30611328 4.55897461 9.38671875 4.61914062 C8.18144531 4.66103516 6.97617188 4.70292969 5.734375 4.74609375 C4.62416992 4.78275146 3.51396484 4.81940918 2.37011719 4.85717773 C-0.09271849 5.02960904 -2.20732965 5.35845439 -4.5625 6.0625 C-3.48963568 0.08511307 -3.48963568 0.08511307 0 0 Z " fill="#F0F0ED" transform="translate(165.5625,97.9375)"/>
<path d="M0 0 C5.14860706 1.28715177 5.86461447 2.90658001 9 7 C5.94736336 7.98120464 4.05263664 7.98120464 1 7 C0.67 7.66 0.34 8.32 0 9 C0 6.03 0 3.06 0 0 Z " fill="#EEEDE9" transform="translate(158,30)"/>
<path d="M0 0 C0.78375 0.04125 1.5675 0.0825 2.375 0.125 C2.0625 2.0625 2.0625 2.0625 1.375 4.125 C0.385 4.455 -0.605 4.785 -1.625 5.125 C-2.285 5.785 -2.945 6.445 -3.625 7.125 C-4.25 4.75 -4.25 4.75 -4.625 2.125 C-2.625 0.125 -2.625 0.125 0 0 Z " fill="#191915" transform="translate(180.625,169.875)"/>
<path d="M0 0 C0.99 0.33 1.98 0.66 3 1 C2.34 1.66 1.68 2.32 1 3 C1.66 3.33 2.32 3.66 3 4 C3.625 6.0625 3.625 6.0625 4 8 C2.35 7.67 0.7 7.34 -1 7 C-1.625 4.625 -1.625 4.625 -2 2 C-1.34 1.34 -0.68 0.68 0 0 Z " fill="#262521" transform="translate(178,144)"/>
<path d="M0 0 C1.14926266 0.95421808 2.29430541 1.91352045 3.4375 2.875 C4.07558594 3.40867188 4.71367187 3.94234375 5.37109375 4.4921875 C7 6 7 6 8 8 C6.02 8 4.04 8 2 8 C1 6 0 4 -1 2 C-0.67 1.34 -0.34 0.68 0 0 Z " fill="#AFAEA9" transform="translate(179,48)"/>
<path d="M0 0 C6.15234375 -0.09765625 6.15234375 -0.09765625 8 0 C9 1 9 1 9.0625 3.5625 C9.041875 4.366875 9.02125 5.17125 9 6 C8.67 4.68 8.34 3.36 8 2 C5.36 2.33 2.72 2.66 0 3 C0 2.01 0 1.02 0 0 Z " fill="#141510" transform="translate(256,170)"/>
<path d="M0 0 C0.99 0.33 1.98 0.66 3 1 C3.875 2.875 3.875 2.875 4 5 C2.5625 6.75 2.5625 6.75 1 8 C0.67 5.36 0.34 2.72 0 0 Z " fill="#EFF1ED" transform="translate(152,104)"/>
<path d="M0 0 C0.99 0.33 1.98 0.66 3 1 C3 1.66 3 2.32 3 3 C-0.3 3 -3.6 3 -7 3 C-6.67 2.34 -6.34 1.68 -6 1 C-4.7934375 1.0309375 -4.7934375 1.0309375 -3.5625 1.0625 C-1.06645115 1.29633621 -1.06645115 1.29633621 0 0 Z " fill="#FEFDFB" transform="translate(261,181)"/>
<path d="M0 0 C1.98 1.65 3.96 3.3 6 5 C4.68 5.33 3.36 5.66 2 6 C1.01 4.68 0.02 3.36 -1 2 C-0.67 1.34 -0.34 0.68 0 0 Z " fill="#B1B0AC" transform="translate(187,56)"/>
</svg>
