<svg width="254.05" height="92.5" viewBox="-2 -2 254.05 92.5" xmlns="http://www.w3.org/2000/svg">
  <g id="svgGroup" stroke-linecap="round" fill-rule="nonzero" fill="#000000" stroke="#000000" stroke-width="0.5">
      <path d="M27.750 18.900L27.750 52.200C27.750 58.950 27 61.800 21.675 61.800C16.350 61.800 15.600 58.950 15.600 52.200L15.600 18.900L4.500 18.900L4.500 58.800C4.500 66.300 11.100 72.300 19.950 72.300C25.725 72.300 29.400 70.725 33.300 66.525C37.200 70.725 40.875 72.300 46.650 72.300C55.500 72.300 62.100 66.300 62.100 58.800L62.100 18.900L51 18.900L51 52.200C51 58.950 50.250 61.800 44.925 61.800C39.600 61.800 38.850 58.950 38.850 52.200L38.850 18.900ZM79.800 71.400L79.800 34.950L70.200 34.950L70.200 71.400ZM75 18.000C71.775 18.000 69.300 20.175 69.300 24.075C69.300 27.975 71.775 30.150 75 30.150C78.225 30.150 80.700 27.975 80.700 24.075C80.700 20.175 78.225 18.000 75 18.000ZM96.675 71.400L96.675 56.550L102.150 56.550C105.825 56.550 107.925 58.200 107.925 63.000L107.925 71.400L117.525 71.400L117.525 62.175C117.525 55.275 115.575 51.750 108.375 50.475L108.375 50.250C111.225 49.650 112.275 48.150 114.450 43.425L118.275 34.950L107.550 34.950L103.800 43.425C102.675 45.975 101.025 47.250 99.450 47.250L96.675 47.250L96.675 18.900L87.075 18.900L87.075 71.400ZM133.950 71.400L133.950 34.950L124.350 34.950L124.350 71.400ZM129.150 18.000C125.925 18.000 123.450 20.175 123.450 24.075C123.450 27.975 125.925 30.150 129.150 30.150C132.375 30.150 134.850 27.975 134.850 24.075C134.850 20.175 132.375 18.000 129.150 18.000ZM149.925 34.950L149.925 25.200L140.325 25.200L140.325 58.050C140.325 66.150 143.025 71.400 151.875 71.400L156.900 71.400L156.900 61.800L153.225 61.800C151.275 61.800 149.925 60.450 149.925 57.750L149.925 44.250L156.900 44.250L156.900 34.950ZM173.925 71.400L173.925 29.400L178.575 29.400C187.350 29.400 194.775 35.100 194.775 45.525C194.775 53.100 188.175 60.900 180.225 60.900L177.075 60.900L177.075 71.400L180.225 71.400C194.175 71.400 205.875 61.050 205.875 45.600C205.875 28.500 191.775 18.900 181.575 18.900L162.825 18.900L162.825 71.400ZM222.750 71.400L222.750 35.700C222.750 30.600 225.300 28.500 228.900 28.500C232.425 28.500 234.450 31.050 234.450 34.350C234.450 38.025 232.050 39.825 228.300 39.825L225.525 39.825L225.525 48.975L230.700 48.975C233.775 48.975 236.400 50.550 236.400 55.050C236.400 58.425 234.600 60.900 231.450 60.900L225.525 60.900L225.525 71.400L233.175 71.400C241.950 71.400 247.500 64.725 247.500 56.025C247.500 50.625 245.250 45.825 240.300 43.350C243.750 41.250 245.550 37.275 245.550 33.300C245.550 24.300 238.575 18.000 229.725 18.000C219.300 18.000 212.250 23.475 212.250 36.750L212.250 71.400Z" />
  </g>
</svg>